<svg width="144" height="32" viewBox="0 0 144 32" fill="none" xmlns="http://www.w3.org/2000/svg">
<path d="M40.521 24.4951C36.3053 24.4951 32.9597 23.0548 30.7693 20.2794L34.0849 17.2639C35.5851 19.2142 37.7455 20.1444 40.566 20.1444C42.9364 20.1444 44.4816 19.2292 44.4816 17.864C44.4816 16.1087 42.3663 15.7186 39.8909 15.2985C36.2452 14.6834 31.5945 13.8883 31.5945 8.59242C31.5945 4.51174 34.97 1.90131 40.3409 1.90131C44.2116 1.90131 47.4971 3.25153 49.4775 5.68194L46.1619 8.69744C44.9467 7.18219 42.7413 6.25203 40.2809 6.25203C38.0605 6.25203 36.6353 7.12218 36.6353 8.41239C36.6353 9.98766 38.6006 10.4077 40.941 10.7678C44.6316 11.3229 49.5075 12.058 49.5075 17.7139C49.5075 21.9297 46.1319 24.4951 40.521 24.4951ZM62.5676 24L58.862 17.864L57.0767 19.8593V24H52.4259V2.39639H57.0767V13.9483L62.1175 8.09734H67.5634L61.8325 14.5184L67.8185 24H62.5676ZM69.8291 6.19202V2.39639H74.6599V6.19202H69.8291ZM69.9191 24V8.09734H74.5699V24H69.9191ZM87.4265 7.67727C91.3122 7.67727 94.0576 10.8878 94.0576 16.0487C94.0576 21.0295 91.2672 24.4201 87.3515 24.4201C85.3412 24.4201 83.7809 23.5499 82.7157 22.2297V29.2509H78.065V8.11234H82.6257V9.95765C83.6609 8.62243 85.2512 7.67727 87.4265 7.67727ZM85.9863 20.4444C87.9366 20.4444 89.3168 18.8391 89.3168 16.0487C89.3168 13.2432 87.9366 11.6529 85.9863 11.6529C84.006 11.6529 82.5807 13.2732 82.5807 16.0487C82.5807 18.8241 84.006 20.4444 85.9863 20.4444ZM106.062 7.67727C109.948 7.67727 112.694 10.8878 112.694 16.0487C112.694 21.0295 109.903 24.4201 105.987 24.4201C103.977 24.4201 102.417 23.5499 101.352 22.2297V29.2509H96.7009V8.11234H101.262V9.95765C102.297 8.62243 103.887 7.67727 106.062 7.67727ZM104.622 20.4444C106.573 20.4444 107.953 18.8391 107.953 16.0487C107.953 13.2432 106.573 11.6529 104.622 11.6529C102.642 11.6529 101.217 13.2732 101.217 16.0487C101.217 18.8241 102.642 20.4444 104.622 20.4444ZM119.297 17.4439C119.613 19.3942 120.693 20.7145 122.958 20.7145C124.368 20.7145 125.539 20.2644 126.574 18.9592L129.694 21.3296C128.074 23.3849 125.719 24.4201 122.748 24.4201C117.902 24.4201 114.512 21.1645 114.512 16.2287C114.512 11.0678 117.752 7.69227 122.418 7.69227C127.144 7.69227 130.249 11.2629 130.249 16.3787V17.4439H119.297ZM122.403 11.3979C120.888 11.3979 119.733 12.4331 119.342 14.4584H125.479C125.103 12.4781 123.963 11.3979 122.403 11.3979ZM141.771 7.73728C142.236 7.73728 142.866 7.78229 143.706 7.99232L142.956 12.073C142.551 11.968 141.846 11.908 141.276 11.908C139.025 11.908 137.51 13.6933 137.51 16.4537V24H132.859V8.09734H137.42V10.3477C138.02 8.98249 139.535 7.73728 141.771 7.73728Z" fill="white"/>
<path d="M0 15.9438H28.077L22.8263 24.4995H0V15.9438Z" fill="white"/>
<path d="M4.4585 3.17065H18.015C18.015 3.17065 20.2335 5.56072 20.3648 7.65249C20.5101 9.96899 18.015 12.8108 18.015 12.8108H4.4585C4.4585 12.8108 6.8289 9.94619 6.68778 7.65249C6.56065 5.58603 4.4585 3.17065 4.4585 3.17065Z" fill="white"/>
</svg>
